<svg xmlns="http://www.w3.org/2000/svg" width="11.94" height="21.91"><defs><filter id="a" x="1365" y="6046.09" width="11.94" height="21.91" filterUnits="userSpaceOnUse"><feFlood result="flood" flood-color="#0cb8d2"/><feComposite result="composite" operator="in" in2="SourceGraphic"/><feBlend result="blend" in2="SourceGraphic"/></filter></defs><path data-name="Forma 1 копия" d="M1376.5 6046.1l-2.87-.01a5.014 5.014 0 00-5.3 5.4v2.48h-2.88a.448.448 0 00-.45.45v3.6a.448.448 0 00.45.45h2.88v9.08a.448.448 0 00.45.45h3.76a.448.448 0 00.45-.45v-9.08h3.37a.448.448 0 00.45-.45v-3.6a.438.438 0 00-.13-.32.463.463 0 00-.32-.13h-3.37v-2.11c0-1.01.25-1.52 1.58-1.52h1.93a.448.448 0 00.45-.45v-3.34a.448.448 0 00-.45-.45z" transform="translate(-1365 -6046.09)" fill="#fff" fill-rule="evenodd" opacity=".75" filter="url(#a)"/></svg>