<svg xmlns="http://www.w3.org/2000/svg" width="22.81" height="23"><path d="M5.31 7.39H.73a.369.369 0 00-.37.37v14.87a.369.369 0 00.37.37h4.58a.367.367 0 00.36-.37V7.76a.367.367 0 00-.36-.37zM3.02 0a3.05 3.05 0 103.02 3.05A3.037 3.037 0 003.02 0zm13.93 7.02a5.363 5.363 0 00-4.02 1.71v-.97a.369.369 0 00-.37-.37H8.18a.369.369 0 00-.37.37v14.87a.369.369 0 00.37.37h4.57a.367.367 0 00.36-.37v-7.36c0-2.48.67-3.44 2.38-3.44 1.86 0 2.01 1.55 2.01 3.57v7.23a.376.376 0 00.37.37h4.57a.376.376 0 00.37-.37v-8.16c0-3.68-.7-7.45-5.86-7.45z" fill="#fff" fill-rule="evenodd" opacity=".75"/></svg>