<svg xmlns="http://www.w3.org/2000/svg" width="27.25" height="19.38"><path data-name="Forma 1" d="M22.05 14.97a.423.423 0 01-.3-.12L16.7 10.1a.432.432 0 01-.02-.62.441.441 0 01.62-.02l5.05 4.75a.432.432 0 01.02.62.448.448 0 01-.32.14zm-16.87 0a.448.448 0 01-.32-.14.432.432 0 01.02-.62l5.05-4.75a.442.442 0 01.61.64l-5.06 4.75a.441.441 0 01-.3.12zm19.86 4.41H2.19a2.206 2.206 0 01-2.2-2.2V2.2A2.206 2.206 0 012.19 0h22.85a2.2 2.2 0 012.19 2.2v14.98a2.2 2.2 0 01-2.19 2.2zM2.19.88A1.319 1.319 0 00.87 2.2v14.98a1.319 1.319 0 001.32 1.32h22.85a1.319 1.319 0 001.32-1.32V2.2A1.319 1.319 0 0025.04.88H2.19zM13.61 11.9a2.506 2.506 0 01-1.61-.58L.72 1.47A.44.44 0 011.3.81l11.28 9.84a1.641 1.641 0 002.07 0L25.91.82a.443.443 0 01.58.67l-11.26 9.82a2.469 2.469 0 01-1.62.59z" fill="#fff" fill-rule="evenodd"/></svg>