<svg xmlns="http://www.w3.org/2000/svg" width="36" height="54"><defs><filter id="a" x="892" y="956" width="36" height="54" filterUnits="userSpaceOnUse"><feFlood result="flood" flood-color="#393a76"/><feComposite result="composite" operator="in" in2="SourceGraphic"/><feBlend result="blend" in2="SourceGraphic"/></filter></defs><path data-name="Shape 1 копия" d="M910 956a18.016 18.016 0 00-18 17.992v18.018a18 18 0 0036 0v-18.019A18.017 18.017 0 00910 956zm16 36.011a16 16 0 01-32 0v-18.02a16 16 0 0132 0v18.019zM910 962a1 1 0 00-1 1v9.056a1 1 0 102 0V963a1 1 0 00-1-1z" transform="translate(-892 -956)" fill="#fff" fill-rule="evenodd" filter="url(#a)"/></svg>