<svg xmlns="http://www.w3.org/2000/svg" width="21.09" height="21.13"><path data-name="Forma 1" d="M16.96 21.11a9.1 9.1 0 01-3.11-.66A25.912 25.912 0 01.66 7.24C-.21 4.91-.22 3 .66 2.13c.12-.13.25-.26.38-.4.8-.84 1.7-1.79 2.89-1.74a3.432 3.432 0 012.44 1.56c2.41 3 1.32 4.07.06 5.31l-.22.22c-.2.21-.59 1.16 3.02 4.79a20.147 20.147 0 003 2.57c.5.33 1.41.83 1.78.46l.22-.23c1.24-1.26 2.31-2.34 5.31.07a3.5 3.5 0 011.56 2.44c.04 1.19-.91 2.1-1.74 2.9-.14.13-.28.26-.4.38a2.754 2.754 0 01-2 .65zM3.85.7c-.85 0-1.61.8-2.29 1.52-.14.14-.27.28-.4.41-.65.65-.59 2.36.17 4.36a25.142 25.142 0 0012.78 12.8c1.99.75 3.7.82 4.35.17.13-.13.27-.27.41-.4.73-.69 1.55-1.48 1.52-2.35a2.885 2.885 0 00-1.3-1.92c-2.49-2.01-3.19-1.3-4.35-.12l-.23.23c-.55.55-1.45.43-2.67-.37a20.472 20.472 0 01-3.11-2.66c-3-3.01-3.96-4.85-3.02-5.79l.23-.22C7.11 5.2 7.83 4.5 5.82 1.99A2.885 2.885 0 003.9.7h-.05z" fill="#fff" fill-rule="evenodd"/></svg>