<svg xmlns="http://www.w3.org/2000/svg" width="25" height="20.81"><defs><filter id="a" x="1358.47" y="6093.19" width="25" height="20.81" filterUnits="userSpaceOnUse"><feFlood result="flood" flood-color="#0cb8d2"/><feComposite result="composite" operator="in" in2="SourceGraphic"/><feBlend result="blend" in2="SourceGraphic"/></filter></defs><path data-name="Forma 1 копия 2" d="M1383.46 6095.65a10.279 10.279 0 01-2.95.83 5.2 5.2 0 002.25-2.9 10.006 10.006 0 01-3.24 1.27 5.1 5.1 0 00-3.74-1.66 5.184 5.184 0 00-5.12 5.25 5.823 5.823 0 00.11 1.2 14.393 14.393 0 01-10.55-5.49 5.371 5.371 0 00-.7 2.65 5.313 5.313 0 002.27 4.37 5.064 5.064 0 01-2.31-.65v.06a5.243 5.243 0 004.1 5.16 5.289 5.289 0 01-1.34.17 4.434 4.434 0 01-.97-.09 5.179 5.179 0 004.78 3.66 10.159 10.159 0 01-6.35 2.24 8.155 8.155 0 01-1.22-.08 14.177 14.177 0 007.86 2.36c9.42 0 14.57-8 14.57-14.94 0-.23 0-.46-.01-.68a10.254 10.254 0 002.56-2.73z" transform="translate(-1358.47 -6093.19)" fill="#fff" fill-rule="evenodd" opacity=".75" filter="url(#a)"/></svg>